<svg width="84" height="84" viewBox="0 0 84 84" fill="none" xmlns="http://www.w3.org/2000/svg">
<path d="M10 58C10 66.8366 17.1634 74 26 74C34.8366 74 42 66.8366 42 58M42 58C42 49.1634 34 44.6667 26 42C18 39.3333 10 34.8366 10 26C10 17.1634 17.1634 10 26 10C34.8366 10 42 17.1634 42 26V42V58ZM42 58C42 49.1634 49.1634 42 58 42C66.8366 42 74 49.1634 74 58C74 66.8366 74 70 74 78M10 58C10 66.8366 17.1634 74 26 74C34.8366 74 42 66.8366 42 58M74 58C74 49.1634 66.8366 42 58 42" stroke="black" stroke-width="19.9"/>
<path d="M10 58C10 66.8366 17.1634 74 26 74C34.8366 74 42 66.8366 42 58M42 58C42 49.1634 34 44.6667 26 42C18 39.3333 10 34.8366 10 26C10 17.1634 17.1634 10 26 10C34.8366 10 42 17.1634 42 26V42V58ZM42 58C42 49.1634 49.1634 42 58 42C66.8366 42 74 49.1634 74 58C74 66.8366 74 70 74 78M10 58C10 66.8366 17.1634 74 26 74C34.8366 74 42 66.8366 42 58M74 58C74 49.1634 66.8366 42 58 42" stroke="white" stroke-width="10"/>
</svg>
