<svg width="85" height="84" viewBox="0 0 85 84" fill="none" xmlns="http://www.w3.org/2000/svg">
<path d="M42.5 26L26.5 10C17.6634 10 10.5 17.1634 10.5 26C10.5 26 20.2516 35.7516 26.5 42M42.5 26C42.5 26 32.7484 35.7516 26.5 42M42.5 26C42.5 26 52.2516 35.7516 58.5 42M42.5 26L58.5 10C67.3366 10 74.5 17.1634 74.5 26C74.5 26 64.7484 35.7516 58.5 42M26.5 42C20.2516 48.2484 10.5 58 10.5 58C10.5 66.8366 17.6634 74 26.5 74C26.5 74 36.2516 64.2484 42.5 58M26.5 42C32.7484 48.2484 36.2516 51.7516 42.5 58M42.5 58C48.7484 64.2484 58.5 74 58.5 74C67.3366 74 74.5 66.8366 74.5 58C74.5 58 64.7484 48.2484 58.5 42M42.5 58C48.7484 51.7516 52.2516 48.2484 58.5 42" stroke="#415A77" stroke-width="19.9"/>
<path d="M42.5 26L26.5 10C17.6634 10 10.5 17.1634 10.5 26C10.5 26 20.2516 35.7516 26.5 42M42.5 26C42.5 26 32.7484 35.7516 26.5 42M42.5 26C42.5 26 52.2516 35.7516 58.5 42M42.5 26L58.5 10C67.3366 10 74.5 17.1634 74.5 26C74.5 26 64.7484 35.7516 58.5 42M26.5 42C20.2516 48.2484 10.5 58 10.5 58C10.5 66.8366 17.6634 74 26.5 74C26.5 74 36.2516 64.2484 42.5 58M26.5 42C32.7484 48.2484 36.2516 51.7516 42.5 58M42.5 58C48.7484 64.2484 58.5 74 58.5 74C67.3366 74 74.5 66.8366 74.5 58C74.5 58 64.7484 48.2484 58.5 42M42.5 58C48.7484 51.7516 52.2516 48.2484 58.5 42" stroke="#1B263B" stroke-width="10"/>
</svg>
