<svg width="122" height="122" viewBox="0 0 122 122" fill="none" xmlns="http://www.w3.org/2000/svg">
<path fill-rule="evenodd" clip-rule="evenodd" d="M92.4062 1.1417C109.75 1.1417 121 12.3917 121 29.7355V92.5479C121 109.892 109.75 121.142 92.4062 121.142H29.5938C12.25 121.142 1 109.892 1 92.5479V29.7355C1 12.3917 12.25 1.1417 29.5938 1.1417H92.4062Z" fill="#0D1B2A"/>
<path fill-rule="evenodd" clip-rule="evenodd" d="M92.4062 1.1417C109.75 1.1417 121 12.3917 121 29.7355V92.5479C121 109.892 109.75 121.142 92.4062 121.142H29.5938C12.25 121.142 1 109.892 1 92.5479V29.7355C1 12.3917 12.25 1.1417 29.5938 1.1417H92.4062Z" stroke="#A4A4A4" stroke-width="0.5"/>
<path d="M29 75.1417C29 83.9783 36.1634 91.1417 45 91.1417C53.8366 91.1417 61 83.9783 61 75.1417M61 75.1417C61 66.3051 53 61.8084 45 59.1417C37 56.475 29 51.9783 29 43.1417C29 34.3051 36.1634 27.1417 45 27.1417C53.8366 27.1417 61 34.3051 61 43.1417V59.1417V75.1417ZM61 75.1417C61 66.3051 68.1634 59.1417 77 59.1417C85.8366 59.1417 93 66.3051 93 75.1417C93 83.9783 93 87.1417 93 95.1417M29 75.1417C29 83.9783 36.1634 91.1417 45 91.1417C53.8366 91.1417 61 83.9783 61 75.1417M93 75.1417C93 66.3051 85.8366 59.1417 77 59.1417" stroke="#415A77" stroke-width="19.9"/>
<path d="M29 75.1417C29 83.9783 36.1634 91.1417 45 91.1417C53.8366 91.1417 61 83.9783 61 75.1417M61 75.1417C61 66.3051 53 61.8084 45 59.1417C37 56.475 29 51.9783 29 43.1417C29 34.3051 36.1634 27.1417 45 27.1417C53.8366 27.1417 61 34.3051 61 43.1417V59.1417V75.1417ZM61 75.1417C61 66.3051 68.1634 59.1417 77 59.1417C85.8366 59.1417 93 66.3051 93 75.1417C93 83.9783 93 87.1417 93 95.1417M29 75.1417C29 83.9783 36.1634 91.1417 45 91.1417C53.8366 91.1417 61 83.9783 61 75.1417M93 75.1417C93 66.3051 85.8366 59.1417 77 59.1417" stroke="#1B263B" stroke-width="10"/>
<path d="M29 75.1335C29 83.97 36.1634 91.1335 45 91.1335C53.8366 91.1335 61 83.97 61 75.1335C61 66.2969 68.1634 59.1335 77 59.1335C85.8366 59.1335 93 66.2969 93 75.1335" stroke="#415A77" stroke-width="20"/>
<path d="M29 75.1335C29 83.97 36.1634 91.1335 45 91.1335C53.8366 91.1335 61 83.97 61 75.1335C61 66.2969 68.1634 59.1335 77 59.1335C85.8366 59.1335 93 66.2969 93 75.1335" stroke="#778DA9" stroke-width="10"/>
</svg>
