<svg width="128" height="128" viewBox="0 0 122 122" fill="none" xmlns="http://www.w3.org/2000/svg">
<path d="M1 61C1 27.8629 27.8629 1 61 1C94.1371 1 121 27.8629 121 61C121 94.1371 94.1371 121 61 121C27.8629 121 1 94.1371 1 61Z" fill="#0D1B2A"/>
<path d="M1 61C1 27.8629 27.8629 1 61 1C94.1371 1 121 27.8629 121 61C121 94.1371 94.1371 121 61 121C27.8629 121 1 94.1371 1 61Z" stroke="#A4A4A4" stroke-width="0.5"/>
<path d="M30 74.8293C30 83.4503 36.9887 90.439 45.6098 90.439C54.2308 90.439 61.2195 83.4503 61.2195 74.8293M61.2195 74.8293C61.2195 66.2082 53.4146 61.8211 45.6098 59.2195C37.8049 56.6179 30 52.2308 30 43.6098C30 34.9887 36.9887 28 45.6098 28C54.2308 28 61.2195 34.9887 61.2195 43.6098V59.2195V74.8293ZM61.2195 74.8293C61.2195 66.2082 68.2082 59.2195 76.8293 59.2195C85.4503 59.2195 92.439 66.2082 92.439 74.8293C92.439 83.4503 92.439 86.5366 92.439 94.3415M30 74.8293C30 83.4503 36.9887 90.439 45.6098 90.439C54.2308 90.439 61.2195 83.4503 61.2195 74.8293M92.439 74.8293C92.439 66.2082 85.4503 59.2195 76.8293 59.2195" stroke="#778DA9" stroke-width="19.9"/>
<path d="M30 74.8293C30 83.4503 36.9887 90.439 45.6098 90.439C54.2308 90.439 61.2195 83.4503 61.2195 74.8293M61.2195 74.8293C61.2195 66.2082 53.4146 61.8211 45.6098 59.2195C37.8049 56.6179 30 52.2308 30 43.6098C30 34.9887 36.9887 28 45.6098 28C54.2308 28 61.2195 34.9887 61.2195 43.6098V59.2195V74.8293ZM61.2195 74.8293C61.2195 66.2082 68.2082 59.2195 76.8293 59.2195C85.4503 59.2195 92.439 66.2082 92.439 74.8293C92.439 83.4503 92.439 86.5366 92.439 94.3415M30 74.8293C30 83.4503 36.9887 90.439 45.6098 90.439C54.2308 90.439 61.2195 83.4503 61.2195 74.8293M92.439 74.8293C92.439 66.2082 85.4503 59.2195 76.8293 59.2195" stroke="#1B263B" stroke-width="10"/>
</svg>
